# xmcd
#
# Track frame offsets:
#	150
#	15498
#	32708
#	47129
#	65765
#	78260
#	92572
#	107068
#	121596
#
# Disc length: 1790 seconds
#
# Revision: 0
# Processed by: cddbd v1.5.2PL0 Copyright (c) Steve Scherf et al.
# Submitted via: EasyCDDAExtractor 10.2.0.1
#
DISCID=6606fc09
DTITLE=The Fox Brothers - Sincerely Yours
DYEAR=2000
DGENRE=Gospel
TTITLE0=Yours
TTITLE1=Backslider's Prayer
TTITLE2=You Take Me Back To Saturday Night
TTITLE3=If We Could See Our Brother Through Your Eyes
TTITLE4=He Broke The Law
TTITLE5=Look Up
TTITLE6=Handmade
TTITLE7=You Plant Your Fields
TTITLE8=Amazing Grace
EXTD=
EXTT0=
EXTT1=
EXTT2=
EXTT3=
EXTT4=
EXTT5=
EXTT6=
EXTT7=
EXTT8=
PLAYORDER=
